<svg id="visual" viewBox="0 0 700 300" width="700" height="300" xmlns="http://www.w3.org/2000/svg" xmlns:xlink="http://www.w3.org/1999/xlink" version="1.1"><g transform="translate(316.9805431360759 180.88071004990667)"><path d="M73.9 -108.2C101.2 -81.9 132.4 -67.5 156.4 -39.9C180.4 -12.3 197.2 28.6 184.3 57.3C171.5 86 128.9 102.5 93.3 109.6C57.6 116.8 28.8 114.6 0.4 114.1C-28 113.6 -56 114.6 -78.2 103.1C-100.4 91.5 -116.8 67.4 -121.3 42.1C-125.9 16.8 -118.6 -9.7 -110.6 -36.4C-102.6 -63.2 -93.9 -90.3 -75.4 -119.4C-56.8 -148.5 -28.4 -179.8 -2.5 -176.3C23.3 -172.8 46.6 -134.5 73.9 -108.2" fill="#e22d25"></path></g></svg>